<?xml version="1.0" standalone="no"?><!DOCTYPE svg PUBLIC "-//W3C//DTD SVG 1.1//EN" "http://www.w3.org/Graphics/SVG/1.1/DTD/svg11.dtd"><svg t="1764660149581" class="icon" viewBox="0 0 1024 1024" version="1.1" xmlns="http://www.w3.org/2000/svg" p-id="5644" xmlns:xlink="http://www.w3.org/1999/xlink" width="200" height="200"><path d="M55.466667 558.933333l64 29.866667C123.733333 593.066667 132.266667 597.333333 140.8 597.333333l230.4 0c42.666667-25.6 89.6-42.666667 140.8-42.666667 12.8 0 25.6 0 34.133333 4.266667 4.266667-4.266667 8.533333-8.533333 8.533333-17.066667L554.666667 512l-85.333333 0-42.666667-42.666667 0-29.866667c0-8.533333-4.266667-12.8-12.8-12.8L183.466667 426.666667C174.933333 426.666667 170.666667 430.933333 170.666667 439.466667L170.666667 469.333333l-42.666667 42.666667L42.666667 512l0 29.866667C42.666667 550.4 46.933333 558.933333 55.466667 558.933333z" fill="#ffffff" p-id="5645"></path><path d="M12.8 772.266667l64 29.866667C76.8 806.4 85.333333 810.666667 89.6 810.666667c25.6-25.6 64-42.666667 102.4-42.666667 25.6 0 46.933333 4.266667 64 17.066667 4.266667-55.466667 29.866667-102.4 64-145.066667L140.8 640C132.266667 640 128 644.266667 128 652.8L128 682.666667l-42.666667 42.666667L0 725.333333l0 29.866667C0 763.733333 4.266667 772.266667 12.8 772.266667z" fill="#ffffff" p-id="5646"></path><path d="M140.8 174.933333l64 29.866667C209.066667 209.066667 217.6 213.333333 226.133333 213.333333l145.066667 0c8.533333 0 17.066667-4.266667 25.6-4.266667l64-29.866667C465.066667 174.933333 469.333333 166.4 469.333333 157.866667L469.333333 128 384 128 341.333333 85.333333 324.266667 21.333333C324.266667 8.533333 311.466667 0 298.666667 0 285.866667 0 273.066667 8.533333 273.066667 21.333333L256 85.333333 213.333333 128 128 128l0 29.866667C128 166.4 132.266667 174.933333 140.8 174.933333z" fill="#ffffff" p-id="5647"></path><path d="M98.133333 345.6l64 29.866667C166.4 379.733333 174.933333 384 183.466667 384l230.4 0c8.533333 0 17.066667-4.266667 25.6-4.266667l64-29.866667C507.733333 345.6 512 337.066667 512 328.533333L512 298.666667l-85.333333 0L392.533333 264.533333C388.266667 260.266667 379.733333 256 371.2 256L226.133333 256C217.6 256 209.066667 260.266667 204.8 264.533333L170.666667 298.666667 85.333333 298.666667l0 29.866667C85.333333 337.066667 89.6 345.6 98.133333 345.6z" fill="#ffffff" p-id="5648"></path><path d="M725.333333 640c42.666667 0 76.8 17.066667 102.4 46.933333 17.066667-4.266667 29.866667-4.266667 46.933333-4.266667 25.6 0 51.2 4.266667 72.533333 12.8-21.333333-132.266667-55.466667-256-93.866667-209.066667-34.133333 42.666667-38.4-179.2-115.2-179.2-55.466667 0-85.333333 132.266667-106.666667 273.066667 29.866667 12.8 55.466667 34.133333 76.8 59.733333C712.533333 640 716.8 640 725.333333 640z" fill="#ffffff" p-id="5649"></path><path d="M874.666667 725.333333c-25.6 0-46.933333 4.266667-68.266667 17.066667-12.8-34.133333-42.666667-59.733333-81.066667-59.733333-8.533333 0-12.8 0-17.066667 4.266667-4.266667 0-12.8 4.266667-17.066667 4.266667-29.866667 12.8-46.933333 42.666667-46.933333 76.8 0 12.8-8.533333 21.333333-21.333333 21.333333S597.333333 780.8 597.333333 768c0-46.933333 25.6-89.6 64-110.933333C622.933333 618.666667 571.733333 597.333333 512 597.333333c-119.466667 0-213.333333 93.866667-213.333333 213.333333 0 0 0 0 0 4.266667 0 0 4.266667 4.266667 4.266667 4.266667C315.733333 810.666667 328.533333 810.666667 341.333333 810.666667c72.533333 0 128 55.466667 128 128 0 34.133333-12.8 64-34.133333 85.333333l439.466667 0c81.066667 0 149.333333-68.266667 149.333333-149.333333S955.733333 725.333333 874.666667 725.333333z" fill="#ffffff" p-id="5650"></path><path d="M341.333333 853.333333c-21.333333 0-38.4 8.533333-51.2 17.066667C273.066667 836.266667 234.666667 810.666667 192 810.666667c-42.666667 0-81.066667 25.6-98.133333 68.266667-4.266667 0-12.8-4.266667-17.066667-4.266667-42.666667 0-76.8 34.133333-76.8 76.8S34.133333 1024 76.8 1024L341.333333 1024c46.933333 0 85.333333-38.4 85.333333-85.333333S388.266667 853.333333 341.333333 853.333333z" fill="#ffffff" p-id="5651"></path></svg>